Coordinates
version=1
nRows=14
nColumns=42
inDegrees=yes

Units are S.I. units (second, meters, Newtons, ...)
If the header above contains a line with 'inDegrees', this indicates whether rotational values are in degrees (yes) or radians (no).

endheader
time	pelvis_tilt	pelvis_list	pelvis_rotation	pelvis_tx	pelvis_ty	pelvis_tz	hip_flexion_r	hip_adduction_r	hip_rotation_r	knee_angle_r	knee_angle_r_beta	ankle_angle_r	subtalar_angle_r	mtp_angle_r	hip_flexion_l	hip_adduction_l	hip_rotation_l	knee_angle_l	knee_angle_l_beta	ankle_angle_l	subtalar_angle_l	mtp_angle_l	lumbar_extension	lumbar_bending	lumbar_rotation	sh_tx_r	sh_ty_r	sh_tz_r	sh_plane_elev_r	sh_elev_r	sh_axial_rot_r	elbow_flex_r	pro_sup_r	sh_tx_l	sh_ty_l	sh_tz_l	sh_plane_elev_l	sh_elev_l	sh_axial_rot_l	elbow_flex_l	pro_sup_l
      3.40677970	     -7.03944182	     -0.50234052	     -1.65595959	      0.26579431	      0.93190028	     -0.00820916	      5.98693905	     -5.31420965	     -4.73888385	      1.43152001	      0.02498474	      0.74328979	     -3.66000453	     -7.49999987	      5.64934262	     -5.68838773	    -18.87593624	      2.02059509	      0.03526604	      6.73568044	      4.74363541	     -7.49999987	      3.22346391	     -1.90825556	    -10.72503712	      0.01080972	     -0.01840927	     -0.00670284	     13.73754303	      4.22497640	     -5.85487831	     30.80942716	    102.68873904	      0.00255474	     -0.00924234	     -0.00548218	     72.90678324	     53.55769999	    -41.85657474	     22.68271545	      5.95168728
      3.42372880	     -7.03057644	     -0.49023227	     -1.70347626	      0.26564401	      0.93177658	     -0.00832348	      6.02355019	     -5.37179950	     -4.80161821	      1.43859805	      0.02510827	      0.70349104	     -3.63858474	     -7.49999987	      5.62240834	     -5.66417498	    -18.95717286	      1.99784855	      0.03486904	      6.77991375	      4.68774057	     -7.49999987	      3.16075775	     -1.86992196	    -10.38393662	      0.01055271	     -0.01843207	     -0.00666697	     12.65813770	      4.18930123	     -5.37689965	     30.94142152	    103.71412423	      0.00324536	     -0.00962627	     -0.00545249	     73.43531536	     53.50666124	    -41.77115586	     22.07552208	      6.06686160
      3.44067800	     -7.04908541	     -0.50124412	     -1.76277511	      0.26574072	      0.93179892	     -0.00824313	      6.08681666	     -5.39045009	     -4.72743460	      1.43521068	      0.02504915	      0.66594416	     -3.74880113	     -7.49999987	      5.62305482	     -5.66228736	    -18.95290706	      1.97197363	      0.03441743	      6.74103440	      4.51563028	     -7.49999987	      3.21186236	     -1.76302318	    -10.49622183	      0.01089331	     -0.01843918	     -0.00669575	     13.82797153	      4.35790114	     -5.88759030	     30.73145521	    102.27439789	      0.00400034	     -0.00953539	     -0.00548489	     72.97619520	     52.79897980	    -43.93784608	     23.58149301	      6.58136268
      3.45762710	     -7.03459492	     -0.48077052	     -1.83663870	      0.26565514	      0.93187037	     -0.00828480	      6.08192442	     -5.44834962	     -4.80872168	      1.45913295	      0.02546667	      0.60449470	     -3.87750605	     -7.49999987	      5.56473453	     -5.62876167	    -19.15803530	      1.92773483	      0.03364532	      6.78269739	      4.75442452	     -7.49999987	      3.15030731	     -1.77222292	    -10.11131354	      0.01060535	     -0.01844369	     -0.00667379	     12.34869897	      4.26142075	     -5.17286846	     30.93034521	    104.33262061	      0.00412799	     -0.01018579	     -0.00555688	     73.32448431	     52.67369645	    -43.39733970	     23.38688725	      6.74019611
      3.47457630	     -7.01685224	     -0.48755669	     -1.83892637	      0.26572784	      0.93182646	     -0.00818289	      6.03476863	     -5.46373582	     -4.93853800	      1.44208612	      0.02516915	      0.58096699	     -4.00302802	     -7.49999987	      5.55243174	     -5.63136059	    -19.18538340	      1.94344250	      0.03391947	      6.86063614	      4.79343940	     -7.49999987	      3.12516521	     -1.70713482	    -10.32608225	      0.01154732	     -0.01843665	     -0.00668623	     13.21874934	      4.36625116	     -5.42030455	     30.79924239	    103.49627479	      0.00436909	     -0.01015244	     -0.00565559	     72.73445107	     51.94963496	    -44.46572890	     24.45598991	      7.02468544
      3.49152540	     -7.21821125	     -0.49546846	     -1.82399901	      0.26510846	      0.93141647	     -0.00831905	      6.50248010	     -5.51761111	     -5.16782268	      1.99178863	      0.03476327	      0.83314784	     -4.15627847	     -7.49999987	      6.05038003	     -5.72484235	    -19.13552334	      2.50218044	      0.04367129	      7.16303700	      4.66444769	     -7.49999987	      3.03473656	     -1.55493178	    -10.78560078	      0.01162444	     -0.01679530	     -0.00603504	     15.84786059	      4.83212912	     -5.47974656	     30.94258513	     97.27374527	      0.00457619	     -0.00648156	     -0.00542537	     71.49649644	     50.71926403	    -46.97531210	     26.62063987	     15.27510320
      3.50847460	     -7.01323191	     -0.49588137	     -1.79190138	      0.26555379	      0.92870560	     -0.00795943	      6.01159717	     -5.51907606	     -5.21775012	      1.47283793	      0.02570587	      0.50180346	     -4.45120998	     -7.49999987	      5.60131411	     -5.63620706	    -19.10690890	      2.03314588	      0.03548509	      6.97279491	      4.65225913	     -7.49999987	      2.96364353	     -1.60941064	    -10.53743227	      0.01220031	     -0.01841366	     -0.00668194	     14.47097132	      4.59713044	     -5.55101278	     30.75853564	    103.24610367	      0.00389985	     -0.01038835	     -0.00582789	     71.78951669	     50.86881058	    -46.84871984	     26.92648173	      8.04570888
      3.52542370	     -7.01764653	     -0.48678470	     -1.78623098	      0.26537455	      0.92903871	     -0.00796275	      6.05809125	     -5.55258715	     -5.26080173	      1.51569802	      0.02645392	      0.46040069	     -4.72607091	     -7.49999987	      5.64393872	     -5.64096385	    -19.08299175	      2.08664541	      0.03641883	      7.03490215	      4.62018914	     -7.49999987	      2.92864535	     -1.55987848	    -10.51680327	      0.01229662	     -0.01840065	     -0.00664057	     14.50120387	      4.63535059	     -5.31321070	     30.78971728	    102.44410179	      0.00489110	     -0.01035157	     -0.00586975	     71.19800005	     50.09618874	    -48.83834955	     28.97635419	      9.33715438
      3.54237290	     -7.04139266	     -0.46731584	     -1.77168411	      0.26551868	      0.92919192	     -0.00787465	      6.13127669	     -5.59637282	     -5.38670575	      1.57268074	      0.02744846	      0.50311572	     -4.69366444	     -7.49999987	      5.69202837	     -5.64050045	    -19.02962468	      2.13138371	      0.03719966	      7.03749000	      4.46556518	     -7.49999987	      2.99995604	     -1.61669366	    -10.71491246	      0.01220041	     -0.01838002	     -0.00665743	     15.92555140	      4.70086281	     -5.35014864	     30.23019989	     99.48739736	      0.00502860	     -0.01029370	     -0.00591482	     70.45154474	     49.18102333	    -49.84506975	     30.37743729	     13.67165975
      3.55932200	     -7.23814921	     -0.45114000	     -1.73432228	      0.26485910	      0.92907718	     -0.00792975	      6.64523281	     -5.65319389	     -5.47875297	      2.09662437	      0.03659300	      0.67192093	     -4.97509253	     -7.49999987	      6.19723471	     -5.71520397	    -18.83134389	      2.66973689	      0.04659570	      7.27685442	      4.10383084	     -7.49999987	      2.81714081	     -1.44272250	    -11.08112431	      0.01118271	     -0.01666736	     -0.00599140	     18.01376616	      5.07883094	     -5.64083942	     30.43409931	     96.08773844	      0.00522365	     -0.00660712	     -0.00549185	     69.03684473	     47.72656368	    -51.64860219	     33.20154938	     17.15478787
      3.57627120	     -7.07915370	     -0.42328561	     -1.64859860	      0.26560706	      0.92962515	     -0.00778305	      6.17554167	     -5.65675625	     -5.57609488	      1.55407774	      0.02712377	      0.43098938	     -4.96461131	     -7.49999987	      5.79403517	     -5.61946352	    -18.82140863	      2.20309675	      0.03845129	      7.13911809	      4.37754594	     -7.49999987	      3.00896386	     -1.59350671	    -11.50458524	      0.01315068	     -0.01834436	     -0.00669771	     18.77299935	      4.79710981	     -6.32685906	     29.42504637	     96.08875813	      0.00590226	     -0.00925871	     -0.00595059	     68.10513738	     46.55755593	    -53.92409514	     35.01804153	     16.13589263
      3.59322030	     -7.38152138	     -0.43508660	     -1.53961673	      0.26493121	      0.92946696	     -0.00778848	      6.77776084	     -5.65404879	     -5.43320968	      2.11252147	      0.03687046	      0.51584378	     -5.62756642	     -7.49999987	      6.46214888	     -5.73761959	    -18.75547485	      2.81287324	      0.04909390	      7.52363542	      4.40988851	     -7.49999987	      3.02394465	     -1.48934548	    -11.98104037	      0.01278084	     -0.01664083	     -0.00604916	     20.56832144	      5.13210516	     -6.03538276	     29.61017338	     93.03945901	      0.00494450	     -0.00589925	     -0.00551921	     66.94955658	     45.39873896	    -53.35690118	     35.91056808	     20.16289441
      3.61016950	     -7.23794022	     -0.41922292	     -1.39479123	      0.26557037	      0.93004780	     -0.00781000	      6.32536947	     -5.61230670	     -5.49065302	      1.59426762	      0.02782522	      0.41177582	     -5.37184732	     -7.49999987	      6.09353802	     -5.64756475	    -18.60560738	      2.34148351	      0.04086660	      7.20668665	      4.30804068	     -7.49999987	      3.06866144	     -1.64078314	    -11.25096470	      0.01300836	     -0.01833830	     -0.00664248	     13.78670188	      4.11672953	     -4.21737906	     29.81332386	    102.51350075	      0.00502354	     -0.01008336	     -0.00606837	     68.17896786	     45.82990485	    -51.45228378	     34.53244281	     13.09555802
      3.62711860	     -7.26708111	     -0.42335471	     -1.34179398	      0.26553030	      0.93010688	     -0.00774633	      6.32778491	     -5.60413551	     -5.60857260	      1.58592022	      0.02767953	      0.45626341	     -5.35132706	     -7.49999987	      6.10001726	     -5.67675149	    -18.58454393	      2.30738370	      0.04027144	      7.14904190	      4.49275381	     -7.49999987	      3.29495789	     -1.83064207	    -11.20455595	      0.01361980	     -0.01827262	     -0.00662916	     15.74168618	      4.26384514	     -3.89490306	     28.83417894	     98.74745197	      0.00705928	     -0.00968951	     -0.00609225	     67.52134558	     44.78135899	    -51.68774896	     35.07449355	     17.47266933
